<mxfile host="app.diagrams.net" modified="2022-01-03T12:40:17.597Z" agent="5.0 (Macintosh; Intel Mac OS X 10_15_7) AppleWebKit/537.36 (KHTML, like Gecko) Chrome/81.0.4044.138 Safari/537.36" etag="AFT7grQFyuN-3Ge_0_i2" version="16.1.2" type="github">
  <diagram id="idMziamv2zCHgsRt6Vt8" name="Page-1">
    <mxGraphModel dx="1386" dy="708" grid="1" gridSize="10" guides="1" tooltips="1" connect="1" arrows="1" fold="1" page="1" pageScale="1" pageWidth="827" pageHeight="1169" math="0" shadow="0">
      <root>
        <mxCell id="0" />
        <mxCell id="1" parent="0" />
        <mxCell id="j8tJ-ul051D-hOuQylmx-1" value="参与者的认知" style="rounded=0;whiteSpace=wrap;html=1;" parent="1" vertex="1">
          <mxGeometry x="20" y="20" width="120" height="60" as="geometry" />
        </mxCell>
        <mxCell id="j8tJ-ul051D-hOuQylmx-2" value="" style="endArrow=classic;html=1;rounded=0;exitX=0.25;exitY=1;exitDx=0;exitDy=0;entryX=0.25;entryY=0;entryDx=0;entryDy=0;" parent="1" source="j8tJ-ul051D-hOuQylmx-1" target="j8tJ-ul051D-hOuQylmx-3" edge="1">
          <mxGeometry width="50" height="50" relative="1" as="geometry">
            <mxPoint x="100" y="280" as="sourcePoint" />
            <mxPoint x="150" y="230" as="targetPoint" />
          </mxGeometry>
        </mxCell>
        <mxCell id="j8tJ-ul051D-hOuQylmx-3" value="整体趋势" style="rounded=0;whiteSpace=wrap;html=1;" parent="1" vertex="1">
          <mxGeometry x="20" y="210" width="120" height="60" as="geometry" />
        </mxCell>
        <mxCell id="j8tJ-ul051D-hOuQylmx-4" value="强化" style="rounded=0;whiteSpace=wrap;html=1;strokeColor=none;fillColor=none;" parent="1" vertex="1">
          <mxGeometry y="130" width="40" height="40" as="geometry" />
        </mxCell>
        <mxCell id="j8tJ-ul051D-hOuQylmx-5" value="" style="endArrow=classic;html=1;rounded=0;exitX=0.75;exitY=0;exitDx=0;exitDy=0;entryX=0.75;entryY=1;entryDx=0;entryDy=0;" parent="1" source="j8tJ-ul051D-hOuQylmx-3" target="j8tJ-ul051D-hOuQylmx-1" edge="1">
          <mxGeometry width="50" height="50" relative="1" as="geometry">
            <mxPoint x="210" y="190" as="sourcePoint" />
            <mxPoint x="260" y="140" as="targetPoint" />
          </mxGeometry>
        </mxCell>
        <mxCell id="j8tJ-ul051D-hOuQylmx-6" value="强化" style="rounded=0;whiteSpace=wrap;html=1;strokeColor=none;fillColor=none;" parent="1" vertex="1">
          <mxGeometry x="120" y="130" width="40" height="40" as="geometry" />
        </mxCell>
        <mxCell id="ce_0G2xVduI7Axbo4Jg8-1" value="生猪市场的衰退序列" style="rounded=0;whiteSpace=wrap;html=1;fillColor=none;strokeColor=none;" vertex="1" parent="1">
          <mxGeometry x="580" y="50" width="190" height="40" as="geometry" />
        </mxCell>
        <mxCell id="ce_0G2xVduI7Axbo4Jg8-2" value="猪肉行情下行" style="rounded=0;whiteSpace=wrap;html=1;fillColor=none;" vertex="1" parent="1">
          <mxGeometry x="790" y="470" width="120" height="60" as="geometry" />
        </mxCell>
        <mxCell id="ce_0G2xVduI7Axbo4Jg8-6" value="养猪户减少养猪量" style="rounded=0;whiteSpace=wrap;html=1;fillColor=none;" vertex="1" parent="1">
          <mxGeometry x="790" y="120" width="120" height="60" as="geometry" />
        </mxCell>
        <mxCell id="ce_0G2xVduI7Axbo4Jg8-7" value="饲养产仔母猪户淘汰能繁母猪" style="rounded=0;whiteSpace=wrap;html=1;fillColor=none;" vertex="1" parent="1">
          <mxGeometry x="430" y="120" width="120" height="60" as="geometry" />
        </mxCell>
        <mxCell id="ce_0G2xVduI7Axbo4Jg8-9" value="" style="endArrow=classic;html=1;rounded=0;exitX=0.25;exitY=1;exitDx=0;exitDy=0;entryX=0.25;entryY=0;entryDx=0;entryDy=0;" edge="1" parent="1" source="ce_0G2xVduI7Axbo4Jg8-6" target="ce_0G2xVduI7Axbo4Jg8-2">
          <mxGeometry width="50" height="50" relative="1" as="geometry">
            <mxPoint x="843" y="415" as="sourcePoint" />
            <mxPoint x="843" y="545" as="targetPoint" />
          </mxGeometry>
        </mxCell>
        <mxCell id="ce_0G2xVduI7Axbo4Jg8-10" value="强化" style="rounded=0;whiteSpace=wrap;html=1;strokeColor=none;fillColor=none;" vertex="1" parent="1">
          <mxGeometry x="770" y="310" width="40" height="40" as="geometry" />
        </mxCell>
        <mxCell id="ce_0G2xVduI7Axbo4Jg8-11" value="" style="endArrow=classic;html=1;rounded=0;exitX=0.75;exitY=0;exitDx=0;exitDy=0;entryX=0.75;entryY=1;entryDx=0;entryDy=0;" edge="1" parent="1" source="ce_0G2xVduI7Axbo4Jg8-2" target="ce_0G2xVduI7Axbo4Jg8-6">
          <mxGeometry width="50" height="50" relative="1" as="geometry">
            <mxPoint x="943" y="310" as="sourcePoint" />
            <mxPoint x="943" y="180" as="targetPoint" />
          </mxGeometry>
        </mxCell>
        <mxCell id="ce_0G2xVduI7Axbo4Jg8-12" value="强化" style="rounded=0;whiteSpace=wrap;html=1;strokeColor=none;fillColor=none;" vertex="1" parent="1">
          <mxGeometry x="883" y="310" width="40" height="40" as="geometry" />
        </mxCell>
        <mxCell id="ce_0G2xVduI7Axbo4Jg8-14" value="" style="endArrow=classic;html=1;rounded=0;exitX=0;exitY=0.5;exitDx=0;exitDy=0;entryX=1;entryY=0.5;entryDx=0;entryDy=0;" edge="1" parent="1" source="ce_0G2xVduI7Axbo4Jg8-6" target="ce_0G2xVduI7Axbo4Jg8-7">
          <mxGeometry width="50" height="50" relative="1" as="geometry">
            <mxPoint x="599.5" y="250" as="sourcePoint" />
            <mxPoint x="599.5" y="540" as="targetPoint" />
          </mxGeometry>
        </mxCell>
        <mxCell id="ce_0G2xVduI7Axbo4Jg8-15" value="强化" style="rounded=0;whiteSpace=wrap;html=1;strokeColor=none;fillColor=none;" vertex="1" parent="1">
          <mxGeometry x="650" y="110" width="40" height="40" as="geometry" />
        </mxCell>
        <mxCell id="ce_0G2xVduI7Axbo4Jg8-16" value="" style="endArrow=classic;html=1;rounded=0;exitX=0.5;exitY=1;exitDx=0;exitDy=0;entryX=0;entryY=0.5;entryDx=0;entryDy=0;" edge="1" parent="1" source="ce_0G2xVduI7Axbo4Jg8-7" target="ce_0G2xVduI7Axbo4Jg8-2">
          <mxGeometry width="50" height="50" relative="1" as="geometry">
            <mxPoint x="610" y="260" as="sourcePoint" />
            <mxPoint x="610" y="550" as="targetPoint" />
          </mxGeometry>
        </mxCell>
        <mxCell id="ce_0G2xVduI7Axbo4Jg8-17" value="强化" style="rounded=0;whiteSpace=wrap;html=1;strokeColor=none;fillColor=none;" vertex="1" parent="1">
          <mxGeometry x="590" y="330" width="40" height="40" as="geometry" />
        </mxCell>
        <mxCell id="ce_0G2xVduI7Axbo4Jg8-18" value="玉米价格上涨" style="rounded=0;whiteSpace=wrap;html=1;fillColor=none;" vertex="1" parent="1">
          <mxGeometry x="1080" y="120" width="120" height="60" as="geometry" />
        </mxCell>
        <mxCell id="ce_0G2xVduI7Axbo4Jg8-19" value="强化" style="rounded=0;whiteSpace=wrap;html=1;strokeColor=none;fillColor=none;" vertex="1" parent="1">
          <mxGeometry x="980" y="110" width="40" height="40" as="geometry" />
        </mxCell>
        <mxCell id="ce_0G2xVduI7Axbo4Jg8-20" value="" style="endArrow=classic;html=1;rounded=0;exitX=0;exitY=0.5;exitDx=0;exitDy=0;entryX=1;entryY=0.5;entryDx=0;entryDy=0;" edge="1" parent="1" source="ce_0G2xVduI7Axbo4Jg8-18" target="ce_0G2xVduI7Axbo4Jg8-6">
          <mxGeometry width="50" height="50" relative="1" as="geometry">
            <mxPoint x="1050" y="300" as="sourcePoint" />
            <mxPoint x="810" y="300" as="targetPoint" />
          </mxGeometry>
        </mxCell>
      </root>
    </mxGraphModel>
  </diagram>
</mxfile>
